<svg width="120" height="120" viewBox="0 0 120 120" fill="none" xmlns="http://www.w3.org/2000/svg">
  <path d="M65.3,39.7c-3.1,0.3-6.1,1.1-9,2.5c-1.8,0.8-3.4,1.8-5,2.9c1.6-5.6,0.3-11.6-3.8-15.7c-5.1-5.1-13.3-5.1-18.4,0
    c-4.9,4.9-5.1,12.7-0.6,17.8L28,48.8c-1.9-1.9-5-1.9-6.9,0s-1.9,5,0,6.9l34.9,34.9c1.9,1.9,5,1.9,6.9,0s1.9-5,0-6.9l-0.5-0.5
    c4.8,0.7,9.6-1,13-4.4c4.1-4.1,5.4-10.1,3.8-15.7c5.6,1.6,11.6,0.3,15.7-3.8c5.1-5.1,5.1-13.3,0-18.4C90.3,37.4,77.3,38.5,65.3,39.7z" 
    fill="#f7c29b"/>
</svg> 